<svg width="1200" height="600" xmlns="http://www.w3.org/2000/svg">
  <defs>
    <linearGradient id="bg-gradient" x1="0%" y1="0%" x2="100%" y2="100%">
      <stop offset="0%" style="stop-color:#4facfe;stop-opacity:1" />
      <stop offset="100%" style="stop-color:#00f2fe;stop-opacity:1" />
    </linearGradient>
    <filter id="glass" x="-20%" y="-20%" width="140%" height="140%">
      <feGaussianBlur in="SourceGraphic" stdDeviation="10" result="blur" />
      <feColorMatrix in="blur" mode="matrix" values="1 0 0 0 0  0 1 0 0 0  0 0 1 0 0  0 0 0 18 -7" result="goo" />
    </filter>
    <pattern id="grid" width="40" height="40" patternUnits="userSpaceOnUse">
      <path d="M 40 0 L 0 0 0 40" fill="none" stroke="white" stroke-opacity="0.1" stroke-width="1"/>
    </pattern>
  </defs>
  
  <!-- Background -->
  <rect width="1200" height="600" fill="url(#bg-gradient)"/>
  <rect width="1200" height="600" fill="#667eea" opacity="0.6"/>
  <rect width="1200" height="600" fill="url(#grid)" />

  <!-- Abstract Shapes -->
  <circle cx="200" cy="150" r="80" fill="#f6d365" opacity="0.6">
     <animate attributeName="cy" values="150;170;150" dur="10s" repeatCount="indefinite" />
  </circle>
  <circle cx="1000" cy="450" r="100" fill="#a1c4fd" opacity="0.5">
     <animate attributeName="cy" values="450;430;450" dur="8s" repeatCount="indefinite" />
  </circle>

  <!-- Glass Card -->
  <g transform="translate(300, 150)">
    <rect width="600" height="300" rx="20" fill="white" fill-opacity="0.2" stroke="white" stroke-opacity="0.3" stroke-width="2"/>
    
    <!-- Text -->
    <text x="300" y="140" font-family="'Segoe UI', Roboto, Helvetica, Arial, sans-serif" font-size="60" font-weight="bold" text-anchor="middle" fill="white" style="text-shadow: 2px 2px 4px rgba(0,0,0,0.2);">
      Birthday Weather
    </text>
    <text x="300" y="200" font-family="'Segoe UI', Roboto, Helvetica, Arial, sans-serif" font-size="24" font-weight="300" text-anchor="middle" fill="white" fill-opacity="0.9">
      Discover the weather on the day you were born
    </text>
    
    <!-- Decorative Line -->
    <line x1="200" y1="170" x2="400" y2="170" stroke="white" stroke-width="2" stroke-opacity="0.6" stroke-linecap="round"/>
  </g>

  <!-- Weather Icons (Simplified) -->
  <g transform="translate(350, 380)" opacity="0.8">
    <!-- Sun -->
    <circle cx="0" cy="0" r="20" fill="#FFD700" />
    <g stroke="#FFD700" stroke-width="3" stroke-linecap="round">
      <line x1="0" y1="-30" x2="0" y2="-25" />
      <line x1="0" y1="30" x2="0" y2="25" />
      <line x1="-30" y1="0" x2="-25" y2="0" />
      <line x1="30" y1="0" x2="25" y2="0" />
      <line x1="-21" y1="-21" x2="-18" y2="-18" />
      <line x1="21" y1="21" x2="18" y2="18" />
      <line x1="21" y1="-21" x2="18" y2="-18" />
      <line x1="-21" y1="21" x2="-18" y2="18" />
    </g>
  </g>

  <g transform="translate(850, 100)" opacity="0.8">
    <!-- Cloud -->
    <path d="M 10,0 Q 25,-25 40,0 T 60,0 Q 75,25 50,25 L 10,25 Q -10,25 0,0" fill="white" fill-opacity="0.7" />
  </g>

</svg>